<svg width="24" height="24" viewBox="0 0 24 24" fill="none" xmlns="http://www.w3.org/2000/svg">
<path d="M21.924 6.61702C21.8737 6.49579 21.8 6.38568 21.707 6.29302L18.707 3.29302C18.6148 3.19751 18.5044 3.12133 18.3824 3.06892C18.2604 3.01651 18.1292 2.98892 17.9964 2.98777C17.8636 2.98662 17.7319 3.01192 17.609 3.0622C17.4862 3.11248 17.3745 3.18673 17.2806 3.28063C17.1867 3.37452 17.1125 3.48617 17.0622 3.60907C17.0119 3.73196 16.9866 3.86364 16.9877 3.99642C16.9889 4.1292 17.0165 4.26042 17.0689 4.38242C17.1213 4.50443 17.1975 4.61477 17.293 4.70702L18.586 6.00002H15.265C14.4014 5.99998 13.5526 6.2236 12.8011 6.6491C12.0497 7.0746 11.4212 7.68747 10.977 8.42802L7.307 14.543C7.04065 14.9871 6.66388 15.3547 6.21334 15.61C5.76281 15.8654 5.25385 15.9997 4.736 16H3C2.73478 16 2.48043 16.1054 2.29289 16.2929C2.10536 16.4804 2 16.7348 2 17C2 17.2652 2.10536 17.5196 2.29289 17.7071C2.48043 17.8947 2.73478 18 3 18H4.735C5.59856 18.0001 6.44742 17.7764 7.19888 17.3509C7.95034 16.9254 8.57878 16.3126 9.023 15.572L12.693 9.45702C12.9593 9.01291 13.3361 8.64532 13.7867 8.39C14.2372 8.13468 14.7461 8.00033 15.264 8.00002H18.584L17.292 9.29302C17.1098 9.48162 17.009 9.73422 17.0113 9.99642C17.0136 10.2586 17.1188 10.5094 17.3042 10.6948C17.4896 10.8802 17.7404 10.9854 18.0026 10.9877C18.2648 10.99 18.5174 10.8892 18.706 10.707L21.706 7.70702C21.7992 7.61436 21.8731 7.5042 21.9236 7.38287C21.974 7.26154 22 7.13143 22 7.00002L21.924 6.61702ZM21.924 6.61702C21.974 6.73749 21.9998 6.8666 22 6.99702L21.924 6.61702Z" fill="white"/>
<path d="M21.706 17.708L18.707 20.708C18.5194 20.8955 18.2649 21.0008 17.9996 21.0007C17.7344 21.0006 17.48 20.8951 17.2925 20.7075C17.105 20.5199 16.9997 20.2654 16.9998 20.0001C16.9999 19.7349 17.1054 19.4805 17.293 19.293L18.586 18H15.265C14.4014 18 13.5526 17.7764 12.8011 17.3509C12.0497 16.9254 11.4212 16.3125 10.977 15.572L7.307 9.457C7.04065 9.01289 6.66388 8.6453 6.21334 8.38998C5.76281 8.13466 5.25385 8.00031 4.736 8H3C2.73478 8 2.48043 7.89464 2.29289 7.70711C2.10536 7.51957 2 7.26522 2 7C2 6.73478 2.10536 6.48043 2.29289 6.29289C2.48043 6.10536 2.73478 6 3 6H4.735C5.59856 5.99996 6.44742 6.22358 7.19888 6.64908C7.95034 7.07458 8.57878 7.68745 9.023 8.428L12.693 14.543C12.9593 14.9871 13.3361 15.3547 13.7867 15.61C14.2372 15.8653 14.7461 15.9997 15.264 16H18.584L17.292 14.707C17.1098 14.5184 17.009 14.2658 17.0113 14.0036C17.0136 13.7414 17.1188 13.4906 17.3042 13.3052C17.4896 13.1198 17.7404 13.0146 18.0026 13.0123C18.2648 13.01 18.5174 13.1108 18.706 13.293L21.706 16.293C21.901 16.487 21.998 16.743 21.999 16.997V17C21.9991 17.1316 21.9732 17.2619 21.9228 17.3834C21.8723 17.5049 21.7983 17.6152 21.705 17.708H21.706Z" fill="white"/>
</svg>
